# xmcd
#
# Track frame offsets:
#	150
#	17265
#	33945
#	52507
#	70017
#	87654
#	103795
#	124075
#	139820
#	155727
#	171787
#	185505
#	197265
#	214822
#	232830
#	246897
#	265420
#
# Disc length: 3696
#
# Revision: 1
# Processed by: cddbd v1.5.1PL0 Copyright (c) Steve Scherf et al.
# Submitted via: VisiTrax 2.9.5.180 - For more info visit www.synapsa.com
# Normalized: r0:DSETVAR1
#
DISCID=df0e6e11
DTITLE=Various Artist - CDX 192 July 1998
DYEAR=1998
DGENRE=
TTITLE0=Lee Ann Womack - A little past Little Rock
TTITLE1=Bellamy Brothers - Almost Jamaica
TTITLE2=John Berry - Better than a biscuit
TTITLE3=Chad Brock - Evengeline
TTITLE4=Reba McEntire - Forever love
TTITLE5=Aaron Tippin - For you I will
TTITLE6=Dolly Parton - Honky tonk songs
TTITLE7=Kenny Chesney - I will stand
TTITLE8=Clint Black - Loosen up my strings
TTITLE9=LeAnn Rimes - Nothin' new under the moon
TTITLE10=Joe Diffie - Poor me
TTITLE11=Noah Kelley - Take it all out on you
TTITLE12=Mila Mason - This heart
TTITLE13=Billy Ray Cyrus - Tome for letting go
TTITLE14=Tracy Lawrence - While you sleep
TTITLE15=Roger Hamilton - Sharing the night together
TTITLE16=Cledus T Judd - Mindy McCready
EXTD=
EXTT0=
EXTT1=
EXTT2=
EXTT3=
EXTT4=
EXTT5=
EXTT6=
EXTT7=
EXTT8=
EXTT9=
EXTT10=
EXTT11=
EXTT12=
EXTT13=
EXTT14=
EXTT15=
EXTT16=
PLAYORDER=
